{"title":"Decoding.Annie.Parker.2013.1080p.BluRay.H264.AAC.MP4.Raven","uid":11127720,"size":1513495152,"categoryP":"video","categoryS":"hd___movies","magnet":"?xt=urn:btih:90f456ff28db7115b70b5b7385fe458c35cdcf4e&amp;dn=Decoding.Annie.Parker.2013.1080p.BluRay.H264.AAC.MP4.Raven&amp;tr=udp%3A%2F%2Ftracker.openbittorrent.com%3A80&amp;tr=udp%3A%2F%2Fopen.demonii.com%3A1337&amp;tr=udp%3A%2F%2Ftracker.coppersurfer.tk%3A6969&amp;tr=udp%3A%2F%2Fexodus.desync.com%3A6969","seeders":0,"leechers":0,"uploader":"Raven1969","files":-1,"time":1411990644,"description":"Decoding.Annie.Parker.2013.1080p.BluRay.H264.AAC.MP4.Raven.\n\n\n\n\n\nScreen images:\n\n\n &lt;a href=&quot;\nhttp://i.imgur.com/YoPHIHg.png&quot; rel=&quot;nofollow&quot; target=&quot;_NEW&quot;&gt;\nhttp://i.imgur.com/YoPHIHg.png&lt;/a&gt;\n\n\n &lt;a href=&quot;\nhttp://i.imgur.com/ystZgAi.png&quot; rel=&quot;nofollow&quot; target=&quot;_NEW&quot;&gt;\nhttp://i.imgur.com/ystZgAi.png&lt;/a&gt;\n\n\n &lt;a href=&quot;\nhttp://i.imgur.com/j4rn9gp.png&quot; rel=&quot;nofollow&quot; target=&quot;_NEW&quot;&gt;\nhttp://i.imgur.com/j4rn9gp.png&lt;/a&gt;\n\n\n &lt;a href=&quot;\nhttp://i.imgur.com/NAt0w3c.png&quot; rel=&quot;nofollow&quot; target=&quot;_NEW&quot;&gt;\nhttp://i.imgur.com/NAt0w3c.png&lt;/a&gt;\n\n\n &lt;a href=&quot;\nhttp://i.imgur.com/Fx1hsrs.png&quot; rel=&quot;nofollow&quot; target=&quot;_NEW&quot;&gt;\nhttp://i.imgur.com/Fx1hsrs.png&lt;/a&gt;\n\n\n\n\nIMDB:\n\n\n\n &lt;a href=&quot;\nhttp://www.imdb.com/title/tt1464191&quot; rel=&quot;nofollow&quot; target=&quot;_NEW&quot;&gt;\nhttp://www.imdb.com/title/tt1464191&lt;/a&gt;\n\n\n\n\nIMDB Rating:  6.4\n\n\n\n\nStoryline:\n\nLove, science, sex, infidelity, disease and comedy, the wild, mostly true story of the irrepressible Annie Parker and the almost discovery of a cure for cancer.\n\n\n\nGeneral\nFormat                                   : MPEG-4\nFormat profile                           : Base Media\nCodec ID                                 : isom\nFile size                                : 1.40 GiB\nDuration                                 : 1h 39mn\nOverall bit rate mode                    : Variable\nOverall bit rate                         : 2 019 Kbps\nEncoded date                             : UTC 2014-09-29 08:55:50\nTagged date                              : UTC 2014-09-29 08:55:50\nWriting application                      : My MP4Box GUI 0.6.0.6 \n\nVideo\nID                                       : 1\nFormat                                   : AVC\nFormat/Info                              : Advanced Video Codec\nFormat profile                           : &lt;a class=&quot;__cf_email__&quot; href=&quot;/cdn-cgi/l/email-protection&quot; data-cfemail=&quot;f1b9989699b1bdc5dfc1&quot;&gt;[email&amp;#160;protected]&lt;/a&gt;&lt;script data-cfhash='f9e31' type=&quot;text/javascript&quot;&gt;\n/* &lt;![CDATA[ */!function(){try{var t=&quot;currentScript&quot;in document?document.currentScript:function(){for(var t=document.getElementsByTagName(&quot;script&quot;),e=t.length;e--;)if(t[e].getAttribute(&quot;data-cfhash&quot;))return t[e]}();if(t&amp;&amp;t.previousSibling){var e,r,n,i,c=t.previousSibling,a=c.getAttribute(&quot;data-cfemail&quot;);if(a){for(e=&quot;&quot;,r=parseInt(a.substr(0,2),16),n=2;a.length-n;n+=2)i=parseInt(a.substr(n,2),16)^r,e+=String.fromCharCode(i);e=document.createTextNode(e),c.parentNode.replaceChild(e,c)}t.parentNode.removeChild(t);}}catch(u){}}()/* ]]&gt; */&lt;/script&gt;\nFormat settings, CABAC                   : Yes\nFormat settings, ReFrames                : 6 frames\nCodec ID                                 : avc1\nCodec ID/Info                            : Advanced Video Coding\nDuration                                 : 1h 39mn\nBit rate                                 : 2 000 Kbps\nMaximum bit rate                         : 47.0 Mbps\nWidth                                    : 1 920 pixels\nHeight                                   : 800 pixels\nDisplay aspect ratio                     : 2.40:1\nFrame rate mode                          : Constant\nFrame rate                               : 23.976 fps\nColor space                              : YUV\nChroma subsampling                       : 4:2:0\nBit depth                                : 8 bits\nScan type                                : Progressive\nBits/(Pixel*Frame)                       : 0.054\nStream size                              : 1.34 GiB (95%)\nWriting library                          : x264 core 128\nLanguage                                 : English\nEncoded date                             : UTC 2014-09-29 08:10:37\nTagged date                              : UTC 2014-09-29 08:56:07\n\nAudio\nID                                       : 2\nFormat                                   : AAC\nFormat/Info                              : Advanced Audio Codec\nFormat profile                           : LC\nCodec ID                                 : 40\nDuration                                 : 1h 39mn\nBit rate mode                            : Variable\nBit rate                                 : 93.4 Kbps\nMaximum bit rate                         : 99.2 Kbps\nChannel(s)                               : 2 channels\nChannel positions                        : Front: L R\nSampling rate                            : 48.0 KHz\nCompression mode                         : Lossy\nStream size                              : 66.5 MiB (5%)\nTitle                                    : Audio AAC LC 96kb.aac\nEncoded date                             : UTC 2014-09-29 08:56:02\nTagged date                              : UTC 2014-09-29 08:56:07\n\n\n\nPLEASE  SEED FOR AS LONG AS POSSIBLE TO KEEP THE TORRENT ALIVE :-)","torrent":{"xt":"urn:btih:90f456ff28db7115b70b5b7385fe458c35cdcf4e","amp;dn":"Decoding.Annie.Parker.2013.1080p.BluRay.H264.AAC.MP4.Raven","amp;tr":["udp%3A%2F%2Ftracker.openbittorrent.com%3A80","udp%3A%2F%2Fopen.demonii.com%3A1337","udp%3A%2F%2Ftracker.coppersurfer.tk%3A6969","udp%3A%2F%2Fexodus.desync.com%3A6969"],"infoHash":"90f456ff28db7115b70b5b7385fe458c35cdcf4e","infoHashBuffer":{"type":"Buffer","data":[144,244,86,255,40,219,113,21,183,11,91,115,133,254,69,140,53,205,207,78]},"announce":[],"urlList":[]}}